<?xml version="1.0" encoding="UTF-8" standalone="no"?>
<!DOCTYPE svg PUBLIC "-//W3C//DTD SVG 1.1//EN" "http://www.w3.org/Graphics/SVG/1.1/DTD/svg11.dtd">
<svg width="100%" height="100%" viewBox="0 0 5588 4480" version="1.1" xmlns="http://www.w3.org/2000/svg" xmlns:xlink="http://www.w3.org/1999/xlink" xml:space="preserve" xmlns:serif="http://www.serif.com/" style="fill-rule:evenodd;clip-rule:evenodd;stroke-linejoin:round;stroke-miterlimit:2;">
    <g transform="matrix(4.16667,0,0,4.16667,0,0)">
        <g id="Main" transform="matrix(1,0,0,1,870,1410)">
            <g id="CLOUD">
                <g id="Graphic_42">
                    <path d="M-307.041,-1287.94C-399.785,-1195.34 -403.24,-1071.95 -327.69,-964C-324.44,-960.85 -307.99,-945.75 -292.89,-960.4C-277.74,-975.25 -295.763,-997.361 -295.763,-997.361C-348.983,-1075.23 -343.163,-1182.82 -274.041,-1251.94C-217.097,-1308.88 -117.75,-1299.3 -62.2,-1256.2C-64.75,-1264.75 -62.75,-1290.75 -59.4,-1301.8C-91.5,-1333.25 -229.816,-1365.05 -307.041,-1287.94Z" style="fill:rgb(58,142,237);fill-rule:nonzero;"/>
                </g>
                <g id="Graphic_58">
                    <path d="M-32,-706C-63.794,-749.67 -80.4,-798.648 -80.4,-850.2C-80.4,-850.2 -80.3,-879.4 -104.8,-879.4C-129.3,-879.4 -130,-850 -130,-850C-130,-773.223 -102.579,-701.579 -44,-643C-40.841,-639.841 -35.262,-636.988 -32,-634L-32,-706ZM384.5,-640.262C499.284,-757.599 498.495,-945.769 382.132,-1062.13C313.356,-1130.91 196.5,-1168.25 99.4,-1140.8C99.4,-1140.8 75.8,-1136.35 81.4,-1112.8C87,-1089.25 104.5,-1094 108.2,-1095C186.79,-1123.4 287.753,-1085.8 346.777,-1026.78C429.582,-943.971 442.157,-817.53 384.5,-721.472L384.5,-640.262Z" style="fill:rgb(58,142,237);fill-rule:nonzero;"/>
                </g>
                <g id="Graphic_38">
                    <path d="M-811.421,-901.421C-889.526,-823.317 -889.526,-696.684 -811.421,-618.579C-733.316,-540.474 -606.684,-540.474 -528.579,-618.579C-516.023,-631.135 -514.6,-635.2 -508.4,-643C-515.1,-648.7 -533.05,-666.2 -541,-677.4C-548.55,-668.95 -552.25,-665 -563.934,-653.934C-622.513,-595.355 -717.487,-595.355 -776.066,-653.934C-834.645,-712.513 -834.645,-807.487 -776.066,-866.066C-728.312,-913.82 -662.5,-926 -613.5,-910.5C-613.5,-923 -613.75,-936.75 -611.5,-949.5C-652,-968.5 -753.678,-959.165 -811.421,-901.421Z" style="fill:rgb(58,142,237);fill-rule:nonzero;"/>
                </g>
                <g id="Graphic_36">
                    <path d="M-497.487,-1147.49C-634.171,-1010.8 -634.171,-789.197 -497.487,-652.513C-374.893,-529.918 -181.079,-522.679 -44.4,-620C-53.75,-628.25 -68.85,-642.45 -76.8,-655.2C-194.119,-569.782 -356.282,-582.018 -462.132,-687.868C-579.289,-805.026 -579.289,-994.975 -462.132,-1112.13C-428.839,-1145.42 -412.8,-1159.4 -382.8,-1179.4C-379.75,-1193.25 -370.9,-1215.1 -363.2,-1228.4C-409.5,-1223 -457.473,-1187.5 -497.487,-1147.49Z" style="fill:rgb(58,142,237);fill-rule:nonzero;"/>
                </g>
                <g id="Graphic_49">
                    <path d="M220.4,-1179.8C250.625,-1230.62 265.645,-1307.49 207.066,-1366.07C148.487,-1424.64 53.513,-1424.64 -5.066,-1366.07C-53.226,-1317.91 -61.792,-1245.15 -30.764,-1188.24C-29,-1185.5 -15.85,-1172.4 2.2,-1186.2C20.25,-1200 9.75,-1220 7.2,-1226C-5.568,-1261.34 1.962,-1302.38 30.289,-1330.71C69.342,-1369.76 132.658,-1369.76 171.711,-1330.71C210.763,-1291.66 210.763,-1228.34 171.711,-1189.29C165.206,-1182.78 151.1,-1170 143,-1164C161,-1166.75 191.677,-1166.12 206.5,-1163C209.875,-1165.5 217.55,-1175.62 220.4,-1179.8Z" style="fill:rgb(58,142,237);fill-rule:nonzero;"/>
                </g>
            </g>
            <g id="DATA">
                <g id="Graphic_56">
                    <path d="M31.845,-530.309C31.845,-530.309 2.949,-540.33 -16.315,-570.391L-16.315,-490.227C-16.315,-460.165 -7.359,-434.041 40.108,-409.35C115.338,-370.217 237.309,-370.217 312.539,-409.35C360.006,-434.041 368.961,-460.165 368.961,-490.227L368.961,-570.391C349.698,-540.33 320.802,-530.309 320.802,-530.309L320.802,-490.227C320.802,-480.206 326.047,-467.904 291.906,-450.144C260.169,-433.635 211.894,-426.412 165.686,-428.476C129.746,-430.081 95.057,-437.304 70.373,-450.144C36.232,-467.904 31.845,-470.185 31.845,-490.227L31.845,-530.309Z" style="fill:rgb(104,188,54);fill-rule:nonzero;"/>
                </g>
                <g id="Graphic_55">
                    <path d="M31.845,-658.585C31.845,-658.585 2.949,-668.606 -16.315,-698.668L-16.315,-618.503C-16.315,-588.441 -7.359,-562.317 40.108,-537.626C115.338,-498.493 237.309,-498.493 312.539,-537.626C360.006,-562.317 368.961,-588.441 368.961,-618.503L368.961,-698.668C349.698,-668.606 320.802,-658.585 320.802,-658.585L320.802,-618.503C320.802,-608.482 326.047,-596.18 291.906,-578.42C260.169,-561.911 211.894,-554.689 165.686,-556.752C129.746,-558.357 95.057,-565.58 70.373,-578.42C36.232,-596.18 31.845,-598.462 31.845,-618.503L31.845,-658.585Z" style="fill:rgb(104,188,54);fill-rule:nonzero;"/>
                </g>
                <g id="Graphic_54">
                    <path d="M-16.512,-738.965C-15.574,-712.696 -2.008,-688.825 40.108,-666.917C115.338,-627.784 237.309,-627.784 312.539,-666.917C354.655,-688.825 366.453,-711.86 368.578,-737.773L368.961,-737.773L368.961,-747.794L368.578,-747.794C366.453,-773.707 354.655,-796.743 312.539,-818.65C237.309,-857.783 115.338,-857.783 40.108,-818.65C-2.008,-796.743 -14.387,-772.991 -16.512,-747.078L-16.512,-738.965ZM70.5,-777.5C95.185,-790.341 129.746,-797.919 165.686,-799.524C211.894,-801.588 260.169,-794.365 291.906,-777.856C311,-767.5 321,-750 321,-742.5C321,-735 311.5,-719 291.906,-707.712C260.169,-691.202 211.894,-683.98 165.686,-686.043C129.746,-687.648 95.185,-694.659 70.5,-707.5C46,-720.5 32.5,-733 32.5,-743.5C32.5,-754 47,-766 70.5,-777.5Z" style="fill:rgb(104,188,54);fill-rule:nonzero;"/>
                </g>
            </g>
            <g transform="matrix(0.949607,0,0,0.949607,-861.635,-387.409)">
                <g id="Logo">
                    <g transform="matrix(210.613,0,0,210.613,0,0)">
                        <path d="M0.063,-0L0.063,-0.683L0.324,-0.683C0.377,-0.683 0.422,-0.676 0.459,-0.661C0.495,-0.646 0.524,-0.624 0.546,-0.595C0.568,-0.566 0.584,-0.532 0.594,-0.491C0.603,-0.45 0.608,-0.404 0.608,-0.352C0.608,-0.299 0.604,-0.252 0.595,-0.209C0.586,-0.166 0.57,-0.129 0.549,-0.098C0.528,-0.067 0.499,-0.043 0.463,-0.026C0.427,-0.009 0.382,-0 0.328,-0L0.063,-0ZM0.201,-0.116L0.32,-0.116C0.351,-0.116 0.377,-0.122 0.396,-0.134C0.415,-0.146 0.43,-0.163 0.441,-0.185C0.451,-0.206 0.458,-0.231 0.462,-0.26C0.465,-0.288 0.467,-0.319 0.467,-0.352C0.467,-0.384 0.465,-0.413 0.461,-0.44C0.457,-0.466 0.45,-0.489 0.44,-0.508C0.429,-0.527 0.415,-0.541 0.396,-0.552C0.377,-0.562 0.351,-0.567 0.32,-0.567L0.201,-0.567L0.201,-0.116Z" style="fill-rule:nonzero;"/>
                    </g>
                    <g transform="matrix(210.613,0,0,210.613,136.477,0)">
                        <path d="M0.186,0.011C0.134,0.011 0.095,-0.002 0.069,-0.029C0.042,-0.055 0.029,-0.095 0.029,-0.148C0.029,-0.185 0.036,-0.215 0.049,-0.236C0.062,-0.257 0.082,-0.272 0.109,-0.282C0.135,-0.291 0.167,-0.297 0.205,-0.299L0.327,-0.31L0.327,-0.34C0.327,-0.364 0.321,-0.381 0.309,-0.391C0.297,-0.4 0.279,-0.405 0.256,-0.405C0.237,-0.405 0.216,-0.404 0.192,-0.403C0.167,-0.402 0.143,-0.4 0.12,-0.398C0.096,-0.396 0.075,-0.394 0.058,-0.392L0.054,-0.486C0.071,-0.49 0.092,-0.494 0.117,-0.499C0.141,-0.503 0.166,-0.506 0.193,-0.509C0.22,-0.512 0.244,-0.513 0.267,-0.513C0.31,-0.513 0.345,-0.508 0.374,-0.497C0.403,-0.486 0.424,-0.469 0.439,-0.445C0.454,-0.42 0.461,-0.387 0.461,-0.346L0.461,-0.117C0.462,-0.108 0.467,-0.1 0.476,-0.096C0.485,-0.09 0.495,-0.087 0.506,-0.085L0.503,0.007C0.492,0.007 0.482,0.007 0.472,0.008C0.461,0.008 0.451,0.008 0.442,0.008C0.433,0.007 0.424,0.006 0.417,0.005C0.402,0.003 0.389,-0.001 0.378,-0.007C0.367,-0.013 0.358,-0.019 0.351,-0.026C0.34,-0.021 0.326,-0.016 0.308,-0.01C0.29,-0.004 0.271,0.001 0.25,0.005C0.229,0.009 0.207,0.011 0.186,0.011ZM0.218,-0.088C0.231,-0.088 0.244,-0.089 0.258,-0.092C0.272,-0.095 0.285,-0.098 0.298,-0.102C0.31,-0.105 0.32,-0.109 0.327,-0.112L0.327,-0.227L0.225,-0.218C0.203,-0.216 0.187,-0.21 0.178,-0.199C0.168,-0.188 0.163,-0.172 0.163,-0.152C0.163,-0.132 0.167,-0.116 0.177,-0.105C0.186,-0.094 0.199,-0.088 0.218,-0.088Z" style="fill-rule:nonzero;"/>
                    </g>
                    <g transform="matrix(210.613,0,0,210.613,245.365,0)">
                        <path d="M0.231,0.012C0.194,0.012 0.165,0.007 0.142,-0.004C0.119,-0.015 0.103,-0.033 0.094,-0.06C0.084,-0.086 0.079,-0.123 0.079,-0.17L0.079,-0.391L0.02,-0.391L0.02,-0.502L0.079,-0.502L0.079,-0.635L0.212,-0.635L0.212,-0.502L0.34,-0.502L0.34,-0.391L0.212,-0.391L0.212,-0.205C0.212,-0.179 0.213,-0.159 0.216,-0.144C0.218,-0.129 0.223,-0.119 0.231,-0.113C0.239,-0.107 0.251,-0.104 0.268,-0.104C0.273,-0.104 0.28,-0.104 0.289,-0.105C0.298,-0.106 0.308,-0.106 0.317,-0.107C0.326,-0.108 0.334,-0.108 0.34,-0.109L0.344,-0.002C0.334,0 0.322,0.002 0.308,0.004C0.293,0.006 0.279,0.008 0.266,0.01C0.252,0.011 0.24,0.012 0.231,0.012Z" style="fill-rule:nonzero;"/>
                    </g>
                    <g transform="matrix(210.613,0,0,210.613,320.975,0)">
                        <path d="M0.186,0.011C0.134,0.011 0.095,-0.002 0.069,-0.029C0.042,-0.055 0.029,-0.095 0.029,-0.148C0.029,-0.185 0.036,-0.215 0.049,-0.236C0.062,-0.257 0.082,-0.272 0.109,-0.282C0.135,-0.291 0.167,-0.297 0.205,-0.299L0.327,-0.31L0.327,-0.34C0.327,-0.364 0.321,-0.381 0.309,-0.391C0.297,-0.4 0.279,-0.405 0.256,-0.405C0.237,-0.405 0.216,-0.404 0.192,-0.403C0.167,-0.402 0.143,-0.4 0.12,-0.398C0.096,-0.396 0.075,-0.394 0.058,-0.392L0.054,-0.486C0.071,-0.49 0.092,-0.494 0.117,-0.499C0.141,-0.503 0.166,-0.506 0.193,-0.509C0.22,-0.512 0.244,-0.513 0.267,-0.513C0.31,-0.513 0.345,-0.508 0.374,-0.497C0.403,-0.486 0.424,-0.469 0.439,-0.445C0.454,-0.42 0.461,-0.387 0.461,-0.346L0.461,-0.117C0.462,-0.108 0.467,-0.1 0.476,-0.096C0.485,-0.09 0.495,-0.087 0.506,-0.085L0.503,0.007C0.492,0.007 0.482,0.007 0.472,0.008C0.461,0.008 0.451,0.008 0.442,0.008C0.433,0.007 0.424,0.006 0.417,0.005C0.402,0.003 0.389,-0.001 0.378,-0.007C0.367,-0.013 0.358,-0.019 0.351,-0.026C0.34,-0.021 0.326,-0.016 0.308,-0.01C0.29,-0.004 0.271,0.001 0.25,0.005C0.229,0.009 0.207,0.011 0.186,0.011ZM0.218,-0.088C0.231,-0.088 0.244,-0.089 0.258,-0.092C0.272,-0.095 0.285,-0.098 0.298,-0.102C0.31,-0.105 0.32,-0.109 0.327,-0.112L0.327,-0.227L0.225,-0.218C0.203,-0.216 0.187,-0.21 0.178,-0.199C0.168,-0.188 0.163,-0.172 0.163,-0.152C0.163,-0.132 0.167,-0.116 0.177,-0.105C0.186,-0.094 0.199,-0.088 0.218,-0.088Z" style="fill-rule:nonzero;"/>
                    </g>
                    <g transform="matrix(210.613,0,0,210.613,431.126,0)">
                        <path d="M0.309,0.011C0.256,0.011 0.212,0.004 0.178,-0.01C0.143,-0.023 0.116,-0.044 0.096,-0.073C0.076,-0.102 0.062,-0.138 0.055,-0.183C0.047,-0.227 0.043,-0.28 0.043,-0.341C0.043,-0.403 0.047,-0.456 0.055,-0.501C0.062,-0.545 0.076,-0.581 0.096,-0.61C0.116,-0.639 0.143,-0.66 0.179,-0.674C0.214,-0.688 0.258,-0.695 0.313,-0.695C0.335,-0.695 0.358,-0.694 0.382,-0.691C0.406,-0.688 0.429,-0.685 0.452,-0.682C0.474,-0.678 0.493,-0.674 0.509,-0.67L0.505,-0.56C0.492,-0.563 0.475,-0.565 0.455,-0.568C0.435,-0.57 0.415,-0.572 0.394,-0.573C0.373,-0.574 0.354,-0.575 0.336,-0.575C0.304,-0.575 0.278,-0.571 0.258,-0.563C0.238,-0.555 0.223,-0.542 0.212,-0.523C0.201,-0.504 0.193,-0.48 0.189,-0.451C0.185,-0.421 0.183,-0.384 0.183,-0.341C0.183,-0.298 0.185,-0.262 0.189,-0.233C0.193,-0.203 0.2,-0.179 0.211,-0.161C0.222,-0.142 0.237,-0.129 0.258,-0.121C0.278,-0.112 0.304,-0.108 0.337,-0.108C0.364,-0.108 0.393,-0.11 0.426,-0.113C0.458,-0.116 0.485,-0.118 0.506,-0.121L0.509,-0.012C0.493,-0.009 0.474,-0.005 0.452,-0.002C0.43,0.002 0.407,0.005 0.382,0.008C0.357,0.01 0.333,0.011 0.309,0.011Z" style="fill-rule:nonzero;"/>
                    </g>
                    <g transform="matrix(210.613,0,0,210.613,544.857,0)">
                        <rect x="0.059" y="-0.707" width="0.133" height="0.707" style="fill-rule:nonzero;"/>
                    </g>
                    <g transform="matrix(210.613,0,0,210.613,597.721,0)">
                        <path d="M0.271,0.011C0.214,0.011 0.169,0.002 0.135,-0.017C0.1,-0.036 0.075,-0.065 0.06,-0.104C0.045,-0.142 0.037,-0.193 0.037,-0.255C0.037,-0.315 0.045,-0.364 0.061,-0.402C0.077,-0.439 0.102,-0.467 0.137,-0.486C0.172,-0.504 0.216,-0.513 0.271,-0.513C0.326,-0.513 0.371,-0.504 0.406,-0.486C0.44,-0.467 0.465,-0.439 0.482,-0.402C0.498,-0.364 0.506,-0.315 0.506,-0.255C0.506,-0.193 0.498,-0.142 0.483,-0.104C0.468,-0.065 0.443,-0.036 0.409,-0.017C0.374,0.002 0.328,0.011 0.271,0.011ZM0.271,-0.099C0.299,-0.099 0.32,-0.104 0.334,-0.115C0.348,-0.125 0.358,-0.141 0.363,-0.165C0.368,-0.188 0.37,-0.218 0.37,-0.255C0.37,-0.292 0.367,-0.321 0.361,-0.343C0.355,-0.364 0.345,-0.38 0.331,-0.389C0.317,-0.398 0.297,-0.403 0.271,-0.403C0.246,-0.403 0.226,-0.398 0.212,-0.389C0.197,-0.38 0.187,-0.364 0.181,-0.343C0.175,-0.321 0.172,-0.292 0.172,-0.255C0.172,-0.218 0.175,-0.188 0.18,-0.165C0.185,-0.141 0.194,-0.125 0.208,-0.115C0.222,-0.104 0.243,-0.099 0.271,-0.099Z" style="fill-rule:nonzero;"/>
                    </g>
                    <g transform="matrix(210.613,0,0,210.613,711.873,0)">
                        <path d="M0.215,0.011C0.172,0.011 0.138,0.002 0.115,-0.017C0.091,-0.035 0.074,-0.063 0.065,-0.1C0.055,-0.137 0.05,-0.184 0.05,-0.241L0.05,-0.502L0.183,-0.502L0.183,-0.247C0.183,-0.212 0.185,-0.184 0.189,-0.163C0.192,-0.142 0.2,-0.128 0.211,-0.119C0.222,-0.11 0.239,-0.106 0.26,-0.106C0.281,-0.106 0.3,-0.109 0.318,-0.114C0.336,-0.119 0.35,-0.125 0.361,-0.13L0.361,-0.502L0.494,-0.502L0.494,-0L0.362,-0L0.362,-0.031C0.339,-0.018 0.317,-0.008 0.295,-0.001C0.272,0.007 0.246,0.011 0.215,0.011Z" style="fill-rule:nonzero;"/>
                    </g>
                    <g transform="matrix(210.613,0,0,210.613,827.5,0)">
                        <path d="M0.224,0.011C0.2,0.011 0.178,0.008 0.158,0.003C0.138,-0.003 0.121,-0.012 0.106,-0.025C0.091,-0.037 0.078,-0.053 0.068,-0.073C0.057,-0.093 0.049,-0.118 0.044,-0.147C0.039,-0.175 0.036,-0.209 0.036,-0.248C0.036,-0.305 0.043,-0.354 0.058,-0.393C0.072,-0.432 0.095,-0.462 0.126,-0.483C0.157,-0.503 0.199,-0.513 0.251,-0.513C0.261,-0.513 0.273,-0.513 0.286,-0.512C0.299,-0.511 0.312,-0.509 0.325,-0.508C0.338,-0.506 0.348,-0.504 0.356,-0.503L0.356,-0.707L0.49,-0.707L0.49,-0L0.358,-0L0.357,-0.029C0.348,-0.024 0.335,-0.018 0.321,-0.012C0.306,-0.005 0.29,0 0.273,0.005C0.256,0.009 0.24,0.011 0.224,0.011ZM0.258,-0.101C0.27,-0.101 0.282,-0.102 0.295,-0.105C0.307,-0.108 0.319,-0.111 0.33,-0.115C0.341,-0.118 0.349,-0.122 0.356,-0.125L0.356,-0.394C0.35,-0.395 0.342,-0.397 0.332,-0.398C0.322,-0.399 0.312,-0.4 0.301,-0.401C0.29,-0.402 0.281,-0.402 0.272,-0.402C0.246,-0.402 0.226,-0.396 0.212,-0.384C0.197,-0.372 0.187,-0.355 0.181,-0.332C0.175,-0.309 0.172,-0.281 0.172,-0.248C0.172,-0.219 0.174,-0.196 0.178,-0.177C0.182,-0.158 0.188,-0.142 0.196,-0.132C0.203,-0.121 0.212,-0.113 0.223,-0.108C0.234,-0.103 0.245,-0.101 0.258,-0.101Z" style="fill-rule:nonzero;"/>
                    </g>
                </g>
            </g>
        </g>
    </g>
</svg>
